<svg xmlns="http://www.w3.org/2000/svg" version="1.1" xmlns:xlink="http://www.w3.org/1999/xlink" xmlns:svgjs="http://svgjs.dev/svgjs" width="1440" height="560" preserveAspectRatio="none" viewBox="0 0 1440 560"><g mask="url(&quot;#SvgjsMask1052&quot;)" fill="none"><rect width="1440" height="560" x="0" y="0" fill="#0e2a47"></rect><path d="M665.3772075023688 508.21822068978133L738.0259092188438 604.6263041000753 834.4339926291378 531.9776023836002 761.7852909126628 435.5695189733063z" fill="rgba(28, 83, 142, 0.4)" class="triangle-float1"></path><path d="M769.306,297.234C810.566,298.318,853.642,285.857,874.968,250.519C896.889,214.195,891.078,168.188,869.073,131.915C847.912,97.033,810.101,75.805,769.306,76.349C729.434,76.881,693.825,99.891,674.045,134.516C654.428,168.856,652.863,211.078,672.844,245.207C692.626,278.997,730.165,296.205,769.306,297.234" fill="rgba(28, 83, 142, 0.4)" class="triangle-float3"></path><path d="M148.95735073327322-32.40790011130032L19.388652769216378-90.09560116297612-38.29904828245941 39.47309680108073 91.26964968159743 97.16079785275652z" fill="rgba(28, 83, 142, 0.4)" class="triangle-float2"></path><path d="M352.5499992578591-3.7179869957826277L263.33164558727094 34.15295728106382 301.2025898641174 123.37131095165198 390.42094353470554 85.50036667480553z" fill="rgba(28, 83, 142, 0.4)" class="triangle-float2"></path><path d="M133.053,461.015C189.354,460.754,233.195,416.149,258.775,365.994C281.924,320.606,280.156,267.306,254.215,223.455C228.763,180.431,182.961,156.306,133.053,153.47C76.899,150.279,14.294,159.903,-14.567,208.179C-43.94,257.311,-23.567,317.735,5.295,367.169C33.851,416.078,76.419,461.278,133.053,461.015" fill="rgba(28, 83, 142, 0.4)" class="triangle-float1"></path><path d="M1132.313,373.572C1172.037,370.657,1194.826,332.873,1214.498,298.239C1233.822,264.219,1255.022,225.115,1236.086,190.877C1216.778,155.967,1172.206,149.931,1132.313,149.64C1091.732,149.344,1048.085,155.372,1025.888,189.345C1001.908,226.047,1004.266,274.095,1026.196,312.057C1048.116,350.002,1088.609,376.779,1132.313,373.572" fill="rgba(28, 83, 142, 0.4)" class="triangle-float3"></path><path d="M226.88822131601694 468.2741941326783L224.80890428023406 587.3981873308643 343.93289747842005 589.4775043666472 346.0122145142029 470.3535111684612z" fill="rgba(28, 83, 142, 0.4)" class="triangle-float1"></path><path d="M1152.0493261421643 147.49838335286557L1222.6801783960168 71.90064034015565 1134.9272959860841 50.021389425154666z" fill="rgba(28, 83, 142, 0.4)" class="triangle-float1"></path><path d="M91.44756088573365 208.09612736066805L210.31497400012563 297.66914793826004 181.02058146332564 89.22871424627608z" fill="rgba(28, 83, 142, 0.4)" class="triangle-float1"></path><path d="M1252.6847732615258 533.7352413553143L1386.718342000197 627.5865565592811 1480.5696572041638 493.55298782061004 1346.5360884654926 399.70167261664324z" fill="rgba(28, 83, 142, 0.4)" class="triangle-float3"></path></g><defs><mask id="SvgjsMask1052"><rect width="1440" height="560" fill="#ffffff"></rect></mask><style>
                @keyframes float1 {
                    0%{transform: translate(0, 0)}
                    50%{transform: translate(-10px, 0)}
                    100%{transform: translate(0, 0)}
                }

                .triangle-float1 {
                    animation: float1 5s infinite;
                }

                @keyframes float2 {
                    0%{transform: translate(0, 0)}
                    50%{transform: translate(-5px, -5px)}
                    100%{transform: translate(0, 0)}
                }

                .triangle-float2 {
                    animation: float2 4s infinite;
                }

                @keyframes float3 {
                    0%{transform: translate(0, 0)}
                    50%{transform: translate(0, -10px)}
                    100%{transform: translate(0, 0)}
                }

                .triangle-float3 {
                    animation: float3 6s infinite;
                }
            </style></defs></svg>